<svg xmlns="http://www.w3.org/2000/svg" width="1200" height="675" viewBox="0 0 1200 675">
  <defs>
    <linearGradient id="bg" x1="0" y1="0" x2="1" y2="1">
      <stop offset="0%" stop-color="#061226"/>
      <stop offset="45%" stop-color="#0f2740"/>
      <stop offset="100%" stop-color="#00d9ff"/>
    </linearGradient>
    <filter id="shadow">
      <feDropShadow dx="0" dy="18" stdDeviation="18" flood-color="#000" flood-opacity=".5"/>
    </filter>
  </defs>
  <rect width="1200" height="675" fill="url(#bg)"/>
  <circle cx="980" cy="170" r="240" fill="#ff2f92" opacity=".2"/>
  <g opacity=".18">
    <path d="M0 505 C130 460 250 560 410 515 C580 468 740 550 920 505 C1050 475 1110 485 1200 455 L1200 675 L0 675Z" fill="#ffffff"/>
  </g>
  <g transform="translate(260 195)" filter="url(#shadow)">
    <path d="M120 210 C145 40 530 40 555 210 C450 278 250 278 120 210Z" fill="#f8fafc"/>
    <path d="M95 212 C260 290 548 280 735 218 C760 210 775 250 748 268 C565 390 235 385 55 275 C25 257 52 200 95 212Z" fill="#111827"/>
    <path d="M226 96 C310 52 468 56 520 112" fill="none" stroke="#00d9ff" stroke-width="16"/>
    <text x="250" y="205" fill="#081225" font-size="72" font-family="Arial Black, Arial">MIA</text>
    <circle cx="410" cy="188" r="36" fill="#ff2f92"/>
    <path d="M410 152 L441 174 L429 211 L391 211 L379 174Z" fill="#ffffff"/>
  </g>
  <text x="72" y="115" fill="#00d9ff" font-size="30" font-family="Arial Black, Arial" letter-spacing="4">FAN ZONE ESSENTIALS</text>
  <text x="72" y="172" fill="#ffffff" font-size="54" font-family="Arial Black, Arial">Miami Fan Zone Hat</text>
</svg>
